<svg width="100" height="100" viewBox="0 0 100 100" fill="none" xmlns="http://www.w3.org/2000/svg">
<rect width="100" height="100" fill="#1E3F99"/>
<path d="M63.3594 29.9609L50 12.5L36.6406 29.9609C26.5625 43.1445 22.5781 49.0625 22.5781 57.9102C22.5781 65.4102 24.5117 69.043 31.543 74.1406L50 87.5L68.457 74.1406C75.4883 69.043 77.4219 65.4102 77.4219 57.9102C77.4219 49.0625 73.4375 43.1445 63.3594 29.9609ZM45.8984 73.3203L45.7812 76.9531C45.7812 77.4219 45.4883 77.4805 45.1953 77.2461C40.3906 73.7891 34.7656 69.6875 34.7656 69.6875C28.9062 65.4688 28.5547 60.8984 28.5547 57.793C28.5547 55.6836 28.8477 53.3984 29.8438 51.0547C29.9023 50.8789 30.0195 50.5859 30.1953 50.5859C30.3125 50.5859 30.3711 50.6445 30.4297 50.7617C32.4805 53.75 35.7617 58.6133 39.043 62.5977C45.3711 70.2148 46.0156 69.5703 45.8984 73.3203ZM50 66.4648C49.9414 66.4648 49.8828 66.4062 49.8242 66.4062L36.875 51.0547C35.4102 49.2969 34.5898 47.3633 34.5898 45.4297C34.5898 44.1406 35.0586 42.793 35.9961 41.5625L49.8242 22.5781C49.8828 22.5195 49.9414 22.4609 50 22.4609C50.0586 22.4609 50.1172 22.5195 50.1758 22.5781L64.0039 41.5625C64.8828 42.793 65.4102 44.1406 65.4102 45.4297C65.4102 47.3633 64.6484 49.2969 63.125 51.0547L50.1758 66.4062C50.1172 66.4648 50.0586 66.4648 50 66.4648ZM65.2344 69.6875C65.2344 69.6875 59.5508 73.7891 54.8047 77.2461C54.5117 77.4805 54.2773 77.4219 54.2187 76.9531L54.1016 73.3203C53.9844 69.5703 54.6289 70.2148 60.957 62.5977C64.2383 58.6133 67.5195 53.8086 69.5703 50.7617C69.6289 50.6445 69.7461 50.5859 69.8047 50.5859C69.9219 50.5859 70.0977 50.8789 70.1562 51.0547C71.0938 53.3984 71.4453 55.6836 71.4453 57.793C71.4453 60.8984 71.0938 65.4688 65.2344 69.6875Z" fill="white"/>
</svg>
