<svg width="100" height="100" viewBox="0 0 100 100" fill="none" xmlns="http://www.w3.org/2000/svg">
<rect width="100" height="100" fill="#FFD229"/>
<path d="M37.2246 42.2173C38.4551 44.854 39.9199 47.4321 41.8535 49.6001C42.5566 48.311 43.084 46.9634 43.6699 45.6157C45.9551 39.6392 47.1855 33.311 48.0059 27.0415C48.5918 22.2954 49.002 17.4321 48.9434 12.686C43.4941 12.8032 37.9277 14.2095 33.0059 16.6704C32.8887 16.729 32.7129 16.8462 32.5957 16.9634C32.4785 17.9009 32.5957 18.897 32.5371 19.8345C32.7129 27.4517 34.0605 35.186 37.2246 42.2173Z" fill="white"/>
<path d="M55.0367 41.9243C55.857 44.5024 56.7945 47.1392 58.0836 49.5415C59.4899 47.9009 60.6617 46.0845 61.7164 44.2095C64.8219 38.4087 66.4625 31.8462 67.107 25.2837C67.3414 22.5298 67.5172 19.7173 67.4 16.9634C66.1695 16.2017 64.7633 15.6743 63.4742 15.0884C59.4899 13.5649 55.2711 12.7446 50.9938 12.6274C50.9352 14.9712 51.0524 17.3149 51.2281 19.6001C51.7555 27.1587 52.8102 34.6587 55.0367 41.9243Z" fill="white"/>
<path d="M23.5133 45.6157C26.3258 41.4556 28.025 36.6509 29.1383 31.7876C30.1344 27.2759 30.6617 22.647 30.6617 18.0181C30.3687 18.1353 30.0758 18.311 29.8414 18.4868C25.0953 21.5337 20.9937 25.6353 18.0055 30.4985C13.6109 37.5884 11.7359 46.3188 12.7906 54.5806C17.1852 52.7642 20.8766 49.4829 23.5133 45.6157Z" fill="white"/>
<path d="M83.1035 32.5493C80.4668 27.5103 76.5996 23.0571 71.9707 19.7173C71.0918 19.1313 70.2715 18.4868 69.334 18.0181C69.334 21.7095 69.6855 25.4595 70.3301 29.1509C71.3262 34.7173 73.084 40.2837 76.1309 45.0298C78.7676 49.1899 82.5762 52.7056 87.2051 54.5806C88.1426 47.0806 86.6777 39.229 83.1035 32.5493Z" fill="white"/>
<path d="M38.748 56.397C38.5137 55.9282 38.0449 55.5767 37.6934 55.1665C36.1113 53.3501 34.8223 51.2993 33.709 49.1899C32.8301 47.4907 32.1855 45.6743 31.5996 43.9165C31.248 44.4438 31.0723 45.0298 30.8965 45.6157C29.8418 48.604 28.3184 51.4751 26.3848 53.9946C23.3965 57.8618 19.4121 61.1431 14.7832 62.8423C14.8418 63.1938 14.959 63.5454 15.0762 63.8384C16.248 66.7681 17.7715 69.5806 19.6465 72.1001C20.4082 73.0376 21.1113 74.0923 21.9902 74.9126C22.5762 74.7368 23.0449 74.3853 23.5723 74.0923C29.1973 70.4595 33.6504 65.186 37.0488 59.5024C37.6934 58.5063 38.3379 57.5103 38.748 56.397Z" fill="white"/>
<path d="M50.4663 45.8501C50.2905 45.2056 50.3491 44.5024 49.9389 43.9751C49.5288 44.5024 49.5874 45.2642 49.4116 45.8501C48.1811 52.1782 46.3061 58.4478 43.7866 64.3657C40.9155 71.0454 37.1655 77.4907 31.892 82.5884C31.6577 82.8813 32.185 82.9985 32.3608 83.1157C37.6342 85.8696 43.6108 87.3931 49.5874 87.4517C55.9741 87.5103 62.478 85.9282 68.0444 82.7642C62.7709 77.5493 58.8452 71.0454 55.9741 64.2485C53.6303 58.3306 51.6967 52.1782 50.4663 45.8501Z" fill="white"/>
<path d="M69.0404 45.5571C68.8646 45.0298 68.7474 44.4438 68.3959 43.9751C68.0443 44.561 67.8685 45.2642 67.6341 45.9087C66.2279 49.7173 64.1185 53.2329 61.3646 56.2212C61.0716 56.4556 61.306 56.7485 61.4232 56.9829C62.6537 59.3267 64.0599 61.5532 65.5834 63.6626C68.5716 67.7056 72.1459 71.397 76.4232 74.2095C76.892 74.5024 77.3607 74.854 77.8881 74.9712C78.2982 74.6782 78.5912 74.2095 78.8841 73.8579C80.8763 71.4556 82.517 68.8188 83.8646 66.0063C84.3334 65.0103 84.8021 63.9556 85.0951 62.9009C82.5756 61.9634 80.2904 60.6157 78.2396 58.9165C74.0209 55.4009 70.8568 50.7134 69.0404 45.5571Z" fill="white"/>
</svg>
